<?xml version="1.0" encoding="UTF-8"?>
<svg width="512" height="512" viewBox="0 0 512 512" fill="none" xmlns="http://www.w3.org/2000/svg">
  <rect width="512" height="512" rx="128" fill="#0070F3"/>
  <path d="M256 128C309.02 128 352 170.98 352 224V288C352 341.02 309.02 384 256 384C202.98 384 160 341.02 160 288V224C160 170.98 202.98 128 256 128ZM224 224V288C224 305.67 238.33 320 256 320C273.67 320 288 305.67 288 288V224C288 206.33 273.67 192 256 192C238.33 192 224 206.33 224 224Z" fill="white"/>
  <path d="M384 256C384 300.18 355.67 337.92 315.72 352.88C328.53 338.62 336 319.36 336 298.67V213.33C336 192.64 328.53 173.38 315.72 159.12C355.67 174.08 384 211.82 384 256Z" fill="white"/>
  <path d="M128 256C128 211.82 156.33 174.08 196.28 159.12C183.47 173.38 176 192.64 176 213.33V298.67C176 319.36 183.47 338.62 196.28 352.88C156.33 337.92 128 300.18 128 256Z" fill="white"/>
</svg> 